<svg version="1.1" viewBox="0 0 50 50" xmlns="http://www.w3.org/2000/svg" xmlns:xlink="http://www.w3.org/1999/xlink" id="Layer_1" overflow="hidden"><g><path d=" M 3 17.591 L 6.986 38.986 L 6.388 22.25 L 25.041 16.436 L 23.301 11.199 Z" fill="#0072C6"/><path d=" M 4 20 C 3.572 20 3.175 19.722 3.044 19.29 C 2.883 18.761 3.181 18.201 3.709 18.04 L 21.749 12.533 C 22.276 12.371 22.836 12.669 22.997 13.199 C 23.158 13.728 22.86 14.288 22.332 14.449 L 4.292 19.956 C 4.195 19.986 4.096 20 4 20 Z" fill="#59B4D9"/><g><circle cx="4.897" cy="19.802" r="3.174" fill="#0072C6"/><path d=" M 4.897 16.628 C 6.65 16.628 8.071 18.049 8.071 19.802 C 8.071 21.555 6.65 22.976 4.897 22.976 C 3.144 22.976 1.723 21.555 1.723 19.802 C 1.723 18.049 3.145 16.628 4.897 16.628 M 4.897 15.628 C 2.596 15.628 0.723 17.5 0.723 19.802 C 0.723 22.104 2.595 23.976 4.897 23.976 C 7.199 23.976 9.071 22.104 9.071 19.802 C 9.071 17.5 7.199 15.628 4.897 15.628 L 4.897 15.628 Z" fill="#59B4D9"/></g><ellipse cx="4.897" cy="19.802" rx="2.031" ry="2.031" fill="#59B4D9" transform="matrix(0.124,-0.9923,0.9923,0.124,-15.359,22.2058)"/></g><g><path d=" M 47.041 17.591 L 43.055 38.986 L 43.653 22.25 L 25 16.436 L 26.741 11.199 Z" fill="#0072C6"/><path d=" M 46.041 20 C 46.469 20 46.866 19.722 46.997 19.29 C 47.158 18.761 46.86 18.201 46.332 18.04 L 28.292 12.533 C 27.765 12.371 27.205 12.669 27.044 13.199 C 26.883 13.728 27.181 14.288 27.709 14.449 L 45.749 19.956 C 45.847 19.986 45.945 20 46.041 20 Z" fill="#59B4D9"/><g><circle cx="45.144" cy="19.802" r="3.174" fill="#0072C6"/><path d=" M 45.144 16.628 C 46.897 16.628 48.318 18.049 48.318 19.802 C 48.318 21.555 46.897 22.976 45.144 22.976 C 43.391 22.976 41.97 21.555 41.97 19.802 C 41.97 18.049 43.391 16.628 45.144 16.628 M 45.144 15.628 C 42.843 15.628 40.97 17.5 40.97 19.802 C 40.97 22.104 42.842 23.976 45.144 23.976 C 47.446 23.976 49.318 22.104 49.318 19.802 C 49.318 17.5 47.445 15.628 45.144 15.628 L 45.144 15.628 Z" fill="#59B4D9"/></g><ellipse cx="45.144" cy="19.802" rx="2.031" ry="2.031" fill="#59B4D9" transform="matrix(0.9923,-0.124,0.124,0.9923,-2.1073,5.7515)"/></g><rect x="22.077" y="0" width="5.838" height="11.378" fill="#0072C6"/><rect x="25" y="0" width="2.007" height="11.913" fill="#59B4D9"/><rect x="7.095" y="25" width="35.905" height="24" fill="#A0A1A2"/><rect x="9" y="28.673" width="2" height="17.327" fill="#7A7A7A" opacity="0.5"/><rect x="21" y="28.216" width="2" height="16.784" fill="#7A7A7A" opacity="0.5"/><rect x="15" y="28" width="2" height="17.327" fill="#7A7A7A" opacity="0.5"/><rect x="27" y="28" width="2" height="17.667" fill="#7A7A7A" opacity="0.5"/><rect x="33" y="28" width="2" height="18" fill="#7A7A7A" opacity="0.5"/><rect x="39" y="28" width="2" height="18" fill="#7A7A7A" opacity="0.5"/><rect x="9.057" y="27" width="31.943" height="2" fill="#7A7A7A"/><rect x="9.057" y="45" width="31.943" height="2" fill="#7A7A7A"/><path d=" M 43 27.418 L 7 49 L 43 49 Z" fill="#FFFFFF" opacity="0.15"/><circle cx="24.724" cy="12.879" r="6.923" fill="#FFFFFF"/><circle cx="24.724" cy="12.879" r="7" fill="#7FBA00"/><path d=" M 19.421 16.853 L 19.421 16.888 L 19.448 16.888 L 19.421 16.853 Z M 24.787 11.522 C 24.046 11.522 23.445 12.123 23.445 12.864 C 23.445 13.605 24.046 14.206 24.787 14.206 C 25.528 14.206 26.129 13.605 26.129 12.864 C 26.129 12.122 25.528 11.522 24.787 11.522 Z M 20.561 16.134 C 20.839 16.494 21.158 16.813 21.516 17.091 L 22.837 16.061 C 23.163 16.26 23.521 16.412 23.905 16.505 L 24.11 18.162 C 24.334 18.192 24.554 18.23 24.786 18.23 C 25.018 18.23 25.238 18.191 25.462 18.162 L 25.667 16.505 C 26.051 16.412 26.409 16.259 26.735 16.061 L 28.056 17.091 C 28.414 16.813 28.734 16.494 29.011 16.134 L 27.981 14.814 C 28.181 14.487 28.334 14.13 28.425 13.747 L 30.083 13.539 C 30.113 13.315 30.151 13.095 30.151 12.863 C 30.151 12.631 30.112 12.411 30.083 12.187 L 28.426 11.98 C 28.335 11.603 28.185 11.243 27.982 10.913 L 29.011 9.592 C 28.734 9.235 28.413 8.914 28.056 8.637 L 26.735 9.666 C 26.405 9.463 26.044 9.313 25.667 9.222 L 25.462 7.565 C 25.238 7.537 25.018 7.497 24.786 7.497 C 24.554 7.497 24.334 7.537 24.11 7.565 L 23.905 9.222 C 23.528 9.313 23.168 9.463 22.837 9.666 L 21.516 8.637 C 21.159 8.914 20.838 9.235 20.561 9.592 L 21.591 10.913 C 21.391 11.24 21.238 11.597 21.147 11.98 L 19.49 12.187 C 19.459 12.411 19.42 12.631 19.42 12.863 C 19.42 13.095 19.459 13.315 19.488 13.539 L 21.145 13.746 C 21.236 14.128 21.389 14.485 21.589 14.813 M 24.787 15.546 C 23.305 15.546 22.103 14.344 22.104 12.861 C 22.105 11.378 23.306 10.177 24.789 10.178 C 26.271 10.178 27.473 11.38 27.472 12.863 C 27.472 14.346 26.27 15.547 24.787 15.546 L 24.787 15.546 Z" id="iconBg_19_" fill="#FFFFFF"/><g></g><g></g><g></g><g></g><g></g><g></g></svg>